<svg width="337" height="337" viewBox="0 0 337 337" fill="none" xmlns="http://www.w3.org/2000/svg">
<circle cx="168" cy="169" r="165" transform="rotate(90 168 169)" fill="white"/>
<g filter="url(#filter0_d_66_256)">
<circle cx="168.5" cy="168.5" r="144.5" transform="rotate(90 168.5 168.5)" fill="#E3F6FA"/>
</g>
<circle cx="168" cy="96" r="35" fill="#FF5000"/>
<path d="M92.043 154.04V156.3H86.223V159.88H90.683V162.1H86.223V168H83.423V154.04H92.043ZM95.4484 155.6C94.9551 155.6 94.5418 155.447 94.2084 155.14C93.8884 154.82 93.7284 154.427 93.7284 153.96C93.7284 153.493 93.8884 153.107 94.2084 152.8C94.5418 152.48 94.9551 152.32 95.4484 152.32C95.9418 152.32 96.3484 152.48 96.6684 152.8C97.0018 153.107 97.1684 153.493 97.1684 153.96C97.1684 154.427 97.0018 154.82 96.6684 155.14C96.3484 155.447 95.9418 155.6 95.4484 155.6ZM96.8284 156.92V168H94.0284V156.92H96.8284ZM105.735 156.76C107.055 156.76 108.122 157.18 108.935 158.02C109.748 158.847 110.155 160.007 110.155 161.5V168H107.355V161.88C107.355 161 107.135 160.327 106.695 159.86C106.255 159.38 105.655 159.14 104.895 159.14C104.122 159.14 103.508 159.38 103.055 159.86C102.615 160.327 102.395 161 102.395 161.88V168H99.5948V156.92H102.395V158.3C102.768 157.82 103.242 157.447 103.815 157.18C104.402 156.9 105.042 156.76 105.735 156.76ZM112.097 162.42C112.097 161.3 112.317 160.307 112.757 159.44C113.211 158.573 113.824 157.907 114.598 157.44C115.371 156.973 116.231 156.74 117.178 156.74C117.898 156.74 118.584 156.9 119.238 157.22C119.891 157.527 120.411 157.94 120.798 158.46V153.2H123.638V168H120.798V166.36C120.451 166.907 119.964 167.347 119.338 167.68C118.711 168.013 117.984 168.18 117.158 168.18C116.224 168.18 115.371 167.94 114.598 167.46C113.824 166.98 113.211 166.307 112.757 165.44C112.317 164.56 112.097 163.553 112.097 162.42ZM120.818 162.46C120.818 161.78 120.684 161.2 120.418 160.72C120.151 160.227 119.791 159.853 119.338 159.6C118.884 159.333 118.398 159.2 117.878 159.2C117.358 159.2 116.878 159.327 116.438 159.58C115.998 159.833 115.638 160.207 115.358 160.7C115.091 161.18 114.958 161.753 114.958 162.42C114.958 163.087 115.091 163.673 115.358 164.18C115.638 164.673 115.998 165.053 116.438 165.32C116.891 165.587 117.371 165.72 117.878 165.72C118.398 165.72 118.884 165.593 119.338 165.34C119.791 165.073 120.151 164.7 120.418 164.22C120.684 163.727 120.818 163.14 120.818 162.46ZM142.238 154.04L137.518 163.14V168H134.718V163.14L129.978 154.04H133.138L136.138 160.42L139.118 154.04H142.238ZM148.773 168.18C147.706 168.18 146.746 167.947 145.893 167.48C145.039 167 144.366 166.327 143.873 165.46C143.393 164.593 143.153 163.593 143.153 162.46C143.153 161.327 143.399 160.327 143.893 159.46C144.399 158.593 145.086 157.927 145.953 157.46C146.819 156.98 147.786 156.74 148.853 156.74C149.919 156.74 150.886 156.98 151.753 157.46C152.619 157.927 153.299 158.593 153.793 159.46C154.299 160.327 154.553 161.327 154.553 162.46C154.553 163.593 154.293 164.593 153.773 165.46C153.266 166.327 152.573 167 151.693 167.48C150.826 167.947 149.853 168.18 148.773 168.18ZM148.773 165.74C149.279 165.74 149.753 165.62 150.193 165.38C150.646 165.127 151.006 164.753 151.273 164.26C151.539 163.767 151.673 163.167 151.673 162.46C151.673 161.407 151.393 160.6 150.833 160.04C150.286 159.467 149.613 159.18 148.813 159.18C148.013 159.18 147.339 159.467 146.793 160.04C146.259 160.6 145.993 161.407 145.993 162.46C145.993 163.513 146.253 164.327 146.773 164.9C147.306 165.46 147.973 165.74 148.773 165.74ZM167.067 156.92V168H164.247V166.6C163.887 167.08 163.413 167.46 162.827 167.74C162.253 168.007 161.627 168.14 160.947 168.14C160.08 168.14 159.313 167.96 158.647 167.6C157.98 167.227 157.453 166.687 157.067 165.98C156.693 165.26 156.507 164.407 156.507 163.42V156.92H159.307V163.02C159.307 163.9 159.527 164.58 159.967 165.06C160.407 165.527 161.007 165.76 161.767 165.76C162.54 165.76 163.147 165.527 163.587 165.06C164.027 164.58 164.247 163.9 164.247 163.02V156.92H167.067ZM172.629 158.64C172.989 158.053 173.456 157.593 174.029 157.26C174.616 156.927 175.283 156.76 176.029 156.76V159.7H175.289C174.409 159.7 173.743 159.907 173.289 160.32C172.849 160.733 172.629 161.453 172.629 162.48V168H169.829V156.92H172.629V158.64ZM182.001 161C182.001 159.627 182.307 158.4 182.921 157.32C183.547 156.227 184.394 155.38 185.461 154.78C186.541 154.167 187.747 153.86 189.081 153.86C190.641 153.86 192.007 154.26 193.181 155.06C194.354 155.86 195.174 156.967 195.641 158.38H192.421C192.101 157.713 191.647 157.213 191.061 156.88C190.487 156.547 189.821 156.38 189.061 156.38C188.247 156.38 187.521 156.573 186.881 156.96C186.254 157.333 185.761 157.867 185.401 158.56C185.054 159.253 184.881 160.067 184.881 161C184.881 161.92 185.054 162.733 185.401 163.44C185.761 164.133 186.254 164.673 186.881 165.06C187.521 165.433 188.247 165.62 189.061 165.62C189.821 165.62 190.487 165.453 191.061 165.12C191.647 164.773 192.101 164.267 192.421 163.6H195.641C195.174 165.027 194.354 166.14 193.181 166.94C192.021 167.727 190.654 168.12 189.081 168.12C187.747 168.12 186.541 167.82 185.461 167.22C184.394 166.607 183.547 165.76 182.921 164.68C182.307 163.6 182.001 162.373 182.001 161ZM202.952 168.18C201.886 168.18 200.926 167.947 200.072 167.48C199.219 167 198.546 166.327 198.052 165.46C197.572 164.593 197.332 163.593 197.332 162.46C197.332 161.327 197.579 160.327 198.072 159.46C198.579 158.593 199.266 157.927 200.132 157.46C200.999 156.98 201.966 156.74 203.032 156.74C204.099 156.74 205.066 156.98 205.932 157.46C206.799 157.927 207.479 158.593 207.972 159.46C208.479 160.327 208.732 161.327 208.732 162.46C208.732 163.593 208.472 164.593 207.952 165.46C207.446 166.327 206.752 167 205.872 167.48C205.006 167.947 204.032 168.18 202.952 168.18ZM202.952 165.74C203.459 165.74 203.932 165.62 204.372 165.38C204.826 165.127 205.186 164.753 205.452 164.26C205.719 163.767 205.852 163.167 205.852 162.46C205.852 161.407 205.572 160.6 205.012 160.04C204.466 159.467 203.792 159.18 202.992 159.18C202.192 159.18 201.519 159.467 200.972 160.04C200.439 160.6 200.172 161.407 200.172 162.46C200.172 163.513 200.432 164.327 200.952 164.9C201.486 165.46 202.152 165.74 202.952 165.74ZM221.246 156.92V168H218.426V166.6C218.066 167.08 217.593 167.46 217.006 167.74C216.433 168.007 215.806 168.14 215.126 168.14C214.26 168.14 213.493 167.96 212.826 167.6C212.16 167.227 211.633 166.687 211.246 165.98C210.873 165.26 210.686 164.407 210.686 163.42V156.92H213.486V163.02C213.486 163.9 213.706 164.58 214.146 165.06C214.586 165.527 215.186 165.76 215.946 165.76C216.72 165.76 217.326 165.527 217.766 165.06C218.206 164.58 218.426 163.9 218.426 163.02V156.92H221.246ZM226.809 158.64C227.169 158.053 227.636 157.593 228.209 157.26C228.796 156.927 229.462 156.76 230.209 156.76V159.7H229.469C228.589 159.7 227.922 159.907 227.469 160.32C227.029 160.733 226.809 161.453 226.809 162.48V168H224.009V156.92H226.809V158.64ZM236.335 168.18C235.428 168.18 234.615 168.02 233.895 167.7C233.175 167.367 232.602 166.92 232.175 166.36C231.762 165.8 231.535 165.18 231.495 164.5H234.315C234.368 164.927 234.575 165.28 234.935 165.56C235.308 165.84 235.768 165.98 236.315 165.98C236.848 165.98 237.262 165.873 237.555 165.66C237.862 165.447 238.015 165.173 238.015 164.84C238.015 164.48 237.828 164.213 237.455 164.04C237.095 163.853 236.515 163.653 235.715 163.44C234.888 163.24 234.208 163.033 233.675 162.82C233.155 162.607 232.702 162.28 232.315 161.84C231.942 161.4 231.755 160.807 231.755 160.06C231.755 159.447 231.928 158.887 232.275 158.38C232.635 157.873 233.142 157.473 233.795 157.18C234.462 156.887 235.242 156.74 236.135 156.74C237.455 156.74 238.508 157.073 239.295 157.74C240.082 158.393 240.515 159.28 240.595 160.4H237.915C237.875 159.96 237.688 159.613 237.355 159.36C237.035 159.093 236.602 158.96 236.055 158.96C235.548 158.96 235.155 159.053 234.875 159.24C234.608 159.427 234.475 159.687 234.475 160.02C234.475 160.393 234.662 160.68 235.035 160.88C235.408 161.067 235.988 161.26 236.775 161.46C237.575 161.66 238.235 161.867 238.755 162.08C239.275 162.293 239.722 162.627 240.095 163.08C240.482 163.52 240.682 164.107 240.695 164.84C240.695 165.48 240.515 166.053 240.155 166.56C239.808 167.067 239.302 167.467 238.635 167.76C237.982 168.04 237.215 168.18 236.335 168.18ZM253.293 162.22C253.293 162.62 253.267 162.98 253.213 163.3H245.113C245.18 164.1 245.46 164.727 245.953 165.18C246.447 165.633 247.053 165.86 247.773 165.86C248.813 165.86 249.553 165.413 249.993 164.52H253.013C252.693 165.587 252.08 166.467 251.173 167.16C250.267 167.84 249.153 168.18 247.833 168.18C246.767 168.18 245.807 167.947 244.953 167.48C244.113 167 243.453 166.327 242.973 165.46C242.507 164.593 242.273 163.593 242.273 162.46C242.273 161.313 242.507 160.307 242.973 159.44C243.44 158.573 244.093 157.907 244.933 157.44C245.773 156.973 246.74 156.74 247.833 156.74C248.887 156.74 249.827 156.967 250.653 157.42C251.493 157.873 252.14 158.52 252.593 159.36C253.06 160.187 253.293 161.14 253.293 162.22ZM250.393 161.42C250.38 160.7 250.12 160.127 249.613 159.7C249.107 159.26 248.487 159.04 247.753 159.04C247.06 159.04 246.473 159.253 245.993 159.68C245.527 160.093 245.24 160.673 245.133 161.42H250.393Z" fill="black"/>
<path opacity="0.6" d="M64.8443 197.816H68.7483V199H63.3883V187.848H64.8443V197.816ZM74.1185 199.144C73.2972 199.144 72.5505 198.957 71.8785 198.584C71.2172 198.211 70.6945 197.683 70.3105 197C69.9372 196.307 69.7505 195.507 69.7505 194.6C69.7505 193.704 69.9425 192.915 70.3265 192.232C70.7212 191.539 71.2545 191.011 71.9265 190.648C72.5985 190.275 73.3505 190.088 74.1825 190.088C75.0145 190.088 75.7665 190.275 76.4385 190.648C77.1105 191.011 77.6385 191.533 78.0225 192.216C78.4172 192.899 78.6145 193.693 78.6145 194.6C78.6145 195.507 78.4118 196.307 78.0065 197C77.6118 197.683 77.0732 198.211 76.3905 198.584C75.7078 198.957 74.9505 199.144 74.1185 199.144ZM74.1185 197.864C74.6412 197.864 75.1318 197.741 75.5905 197.496C76.0492 197.251 76.4172 196.883 76.6945 196.392C76.9825 195.901 77.1265 195.304 77.1265 194.6C77.1265 193.896 76.9878 193.299 76.7105 192.808C76.4332 192.317 76.0705 191.955 75.6225 191.72C75.1745 191.475 74.6892 191.352 74.1665 191.352C73.6332 191.352 73.1425 191.475 72.6945 191.72C72.2572 191.955 71.9052 192.317 71.6385 192.808C71.3718 193.299 71.2385 193.896 71.2385 194.6C71.2385 195.315 71.3665 195.917 71.6225 196.408C71.8892 196.899 72.2412 197.267 72.6785 197.512C73.1158 197.747 73.5958 197.864 74.1185 197.864ZM81.9849 191.656C82.2409 191.155 82.6035 190.765 83.0729 190.488C83.5529 190.211 84.1342 190.072 84.8169 190.072V191.576H84.4329C82.8009 191.576 81.9849 192.461 81.9849 194.232V199H80.5289V190.232H81.9849V191.656ZM94.4976 194.28C94.4976 194.557 94.4816 194.851 94.4496 195.16H87.4416C87.495 196.024 87.7883 196.701 88.3216 197.192C88.8656 197.672 89.5216 197.912 90.2896 197.912C90.919 197.912 91.4416 197.768 91.8576 197.48C92.2843 197.181 92.583 196.787 92.7536 196.296H94.3216C94.087 197.139 93.6176 197.827 92.9136 198.36C92.2096 198.883 91.335 199.144 90.2896 199.144C89.4576 199.144 88.711 198.957 88.0496 198.584C87.399 198.211 86.887 197.683 86.5136 197C86.1403 196.307 85.9536 195.507 85.9536 194.6C85.9536 193.693 86.135 192.899 86.4976 192.216C86.8603 191.533 87.367 191.011 88.0176 190.648C88.679 190.275 89.4363 190.088 90.2896 190.088C91.1216 190.088 91.8576 190.269 92.4976 190.632C93.1376 190.995 93.6283 191.496 93.9696 192.136C94.3216 192.765 94.4976 193.48 94.4976 194.28ZM92.9936 193.976C92.9936 193.421 92.871 192.947 92.6256 192.552C92.3803 192.147 92.0443 191.843 91.6176 191.64C91.2016 191.427 90.7376 191.32 90.2256 191.32C89.4896 191.32 88.8603 191.555 88.3376 192.024C87.8256 192.493 87.5323 193.144 87.4576 193.976H92.9936ZM106.964 190.072C107.646 190.072 108.254 190.216 108.788 190.504C109.321 190.781 109.742 191.203 110.052 191.768C110.361 192.333 110.516 193.021 110.516 193.832V199H109.076V194.04C109.076 193.165 108.857 192.499 108.42 192.04C107.993 191.571 107.412 191.336 106.676 191.336C105.918 191.336 105.316 191.581 104.868 192.072C104.42 192.552 104.196 193.251 104.196 194.168V199H102.756V194.04C102.756 193.165 102.537 192.499 102.1 192.04C101.673 191.571 101.092 191.336 100.356 191.336C99.5982 191.336 98.9955 191.581 98.5475 192.072C98.0995 192.552 97.8755 193.251 97.8755 194.168V199H96.4195V190.232H97.8755V191.496C98.1635 191.037 98.5475 190.685 99.0275 190.44C99.5182 190.195 100.057 190.072 100.644 190.072C101.38 190.072 102.03 190.237 102.596 190.568C103.161 190.899 103.582 191.384 103.86 192.024C104.105 191.405 104.51 190.925 105.076 190.584C105.641 190.243 106.27 190.072 106.964 190.072ZM118.626 187.848V199H117.17V187.848H118.626ZM122.563 191.848C122.851 191.347 123.278 190.931 123.843 190.6C124.419 190.259 125.086 190.088 125.843 190.088C126.622 190.088 127.326 190.275 127.955 190.648C128.595 191.021 129.096 191.549 129.459 192.232C129.822 192.904 130.003 193.688 130.003 194.584C130.003 195.469 129.822 196.259 129.459 196.952C129.096 197.645 128.595 198.184 127.955 198.568C127.326 198.952 126.622 199.144 125.843 199.144C125.096 199.144 124.435 198.979 123.859 198.648C123.294 198.307 122.862 197.885 122.563 197.384V203.16H121.107V190.232H122.563V191.848ZM128.515 194.584C128.515 193.923 128.382 193.347 128.115 192.856C127.848 192.365 127.486 191.992 127.027 191.736C126.579 191.48 126.083 191.352 125.539 191.352C125.006 191.352 124.51 191.485 124.051 191.752C123.603 192.008 123.24 192.387 122.963 192.888C122.696 193.379 122.563 193.949 122.563 194.6C122.563 195.261 122.696 195.843 122.963 196.344C123.24 196.835 123.603 197.213 124.051 197.48C124.51 197.736 125.006 197.864 125.539 197.864C126.083 197.864 126.579 197.736 127.027 197.48C127.486 197.213 127.848 196.835 128.115 196.344C128.382 195.843 128.515 195.256 128.515 194.584ZM135.024 199.144C134.352 199.144 133.749 199.032 133.216 198.808C132.682 198.573 132.261 198.253 131.952 197.848C131.642 197.432 131.472 196.957 131.44 196.424H132.944C132.986 196.861 133.189 197.219 133.552 197.496C133.925 197.773 134.41 197.912 135.008 197.912C135.562 197.912 136 197.789 136.32 197.544C136.64 197.299 136.8 196.989 136.8 196.616C136.8 196.232 136.629 195.949 136.288 195.768C135.946 195.576 135.418 195.389 134.704 195.208C134.053 195.037 133.52 194.867 133.104 194.696C132.698 194.515 132.346 194.253 132.048 193.912C131.76 193.56 131.616 193.101 131.616 192.536C131.616 192.088 131.749 191.677 132.016 191.304C132.282 190.931 132.661 190.637 133.152 190.424C133.642 190.2 134.202 190.088 134.832 190.088C135.802 190.088 136.586 190.333 137.184 190.824C137.781 191.315 138.101 191.987 138.144 192.84H136.688C136.656 192.381 136.469 192.013 136.128 191.736C135.797 191.459 135.349 191.32 134.784 191.32C134.261 191.32 133.845 191.432 133.536 191.656C133.226 191.88 133.072 192.173 133.072 192.536C133.072 192.824 133.162 193.064 133.344 193.256C133.536 193.437 133.77 193.587 134.048 193.704C134.336 193.811 134.73 193.933 135.232 194.072C135.861 194.243 136.373 194.413 136.768 194.584C137.162 194.744 137.498 194.989 137.776 195.32C138.064 195.651 138.213 196.083 138.224 196.616C138.224 197.096 138.09 197.528 137.824 197.912C137.557 198.296 137.178 198.6 136.688 198.824C136.208 199.037 135.653 199.144 135.024 199.144ZM148.055 190.232V199H146.599V197.704C146.322 198.152 145.932 198.504 145.431 198.76C144.94 199.005 144.396 199.128 143.799 199.128C143.116 199.128 142.503 198.989 141.959 198.712C141.415 198.424 140.983 197.997 140.663 197.432C140.354 196.867 140.199 196.179 140.199 195.368V190.232H141.639V195.176C141.639 196.04 141.858 196.707 142.295 197.176C142.732 197.635 143.33 197.864 144.087 197.864C144.866 197.864 145.479 197.624 145.927 197.144C146.375 196.664 146.599 195.965 146.599 195.048V190.232H148.055ZM161.057 190.072C161.74 190.072 162.348 190.216 162.881 190.504C163.415 190.781 163.836 191.203 164.145 191.768C164.455 192.333 164.609 193.021 164.609 193.832V199H163.169V194.04C163.169 193.165 162.951 192.499 162.513 192.04C162.087 191.571 161.505 191.336 160.769 191.336C160.012 191.336 159.409 191.581 158.961 192.072C158.513 192.552 158.289 193.251 158.289 194.168V199H156.849V194.04C156.849 193.165 156.631 192.499 156.193 192.04C155.767 191.571 155.185 191.336 154.449 191.336C153.692 191.336 153.089 191.581 152.641 192.072C152.193 192.552 151.969 193.251 151.969 194.168V199H150.513V190.232H151.969V191.496C152.257 191.037 152.641 190.685 153.121 190.44C153.612 190.195 154.151 190.072 154.737 190.072C155.473 190.072 156.124 190.237 156.689 190.568C157.255 190.899 157.676 191.384 157.953 192.024C158.199 191.405 158.604 190.925 159.169 190.584C159.735 190.243 160.364 190.072 161.057 190.072ZM175.615 190.072C176.277 190.072 176.874 190.216 177.407 190.504C177.941 190.781 178.357 191.203 178.655 191.768C178.965 192.333 179.119 193.021 179.119 193.832V199H177.679V194.04C177.679 193.165 177.461 192.499 177.023 192.04C176.586 191.571 175.989 191.336 175.231 191.336C174.463 191.336 173.85 191.576 173.391 192.056C172.943 192.536 172.719 193.235 172.719 194.152V199H171.263V187.16H172.719V191.48C173.007 191.032 173.402 190.685 173.903 190.44C174.415 190.195 174.986 190.072 175.615 190.072ZM180.954 194.584C180.954 193.688 181.135 192.904 181.498 192.232C181.86 191.549 182.356 191.021 182.986 190.648C183.626 190.275 184.335 190.088 185.114 190.088C185.882 190.088 186.548 190.253 187.114 190.584C187.679 190.915 188.1 191.331 188.378 191.832V190.232H189.85V199H188.378V197.368C188.09 197.88 187.658 198.307 187.082 198.648C186.516 198.979 185.855 199.144 185.098 199.144C184.319 199.144 183.615 198.952 182.986 198.568C182.356 198.184 181.86 197.645 181.498 196.952C181.135 196.259 180.954 195.469 180.954 194.584ZM188.378 194.6C188.378 193.939 188.244 193.363 187.978 192.872C187.711 192.381 187.348 192.008 186.89 191.752C186.442 191.485 185.946 191.352 185.402 191.352C184.858 191.352 184.362 191.48 183.914 191.736C183.466 191.992 183.108 192.365 182.842 192.856C182.575 193.347 182.442 193.923 182.442 194.584C182.442 195.256 182.575 195.843 182.842 196.344C183.108 196.835 183.466 197.213 183.914 197.48C184.362 197.736 184.858 197.864 185.402 197.864C185.946 197.864 186.442 197.736 186.89 197.48C187.348 197.213 187.711 196.835 187.978 196.344C188.244 195.843 188.378 195.261 188.378 194.6ZM195.414 199.144C194.742 199.144 194.139 199.032 193.606 198.808C193.073 198.573 192.651 198.253 192.342 197.848C192.033 197.432 191.862 196.957 191.83 196.424H193.334C193.377 196.861 193.579 197.219 193.942 197.496C194.315 197.773 194.801 197.912 195.398 197.912C195.953 197.912 196.39 197.789 196.71 197.544C197.03 197.299 197.19 196.989 197.19 196.616C197.19 196.232 197.019 195.949 196.678 195.768C196.337 195.576 195.809 195.389 195.094 195.208C194.443 195.037 193.91 194.867 193.494 194.696C193.089 194.515 192.737 194.253 192.438 193.912C192.15 193.56 192.006 193.101 192.006 192.536C192.006 192.088 192.139 191.677 192.406 191.304C192.673 190.931 193.051 190.637 193.542 190.424C194.033 190.2 194.593 190.088 195.222 190.088C196.193 190.088 196.977 190.333 197.574 190.824C198.171 191.315 198.491 191.987 198.534 192.84H197.078C197.046 192.381 196.859 192.013 196.518 191.736C196.187 191.459 195.739 191.32 195.174 191.32C194.651 191.32 194.235 191.432 193.926 191.656C193.617 191.88 193.462 192.173 193.462 192.536C193.462 192.824 193.553 193.064 193.734 193.256C193.926 193.437 194.161 193.587 194.438 193.704C194.726 193.811 195.121 193.933 195.622 194.072C196.251 194.243 196.763 194.413 197.158 194.584C197.553 194.744 197.889 194.989 198.166 195.32C198.454 195.651 198.603 196.083 198.614 196.616C198.614 197.096 198.481 197.528 198.214 197.912C197.947 198.296 197.569 198.6 197.078 198.824C196.598 199.037 196.043 199.144 195.414 199.144ZM206.391 191.864C206.69 191.341 207.127 190.915 207.703 190.584C208.279 190.253 208.935 190.088 209.671 190.088C210.46 190.088 211.17 190.275 211.799 190.648C212.428 191.021 212.924 191.549 213.287 192.232C213.65 192.904 213.831 193.688 213.831 194.584C213.831 195.469 213.65 196.259 213.287 196.952C212.924 197.645 212.423 198.184 211.783 198.568C211.154 198.952 210.45 199.144 209.671 199.144C208.914 199.144 208.247 198.979 207.671 198.648C207.106 198.317 206.679 197.896 206.391 197.384V199H204.935V187.16H206.391V191.864ZM212.343 194.584C212.343 193.923 212.21 193.347 211.943 192.856C211.676 192.365 211.314 191.992 210.855 191.736C210.407 191.48 209.911 191.352 209.367 191.352C208.834 191.352 208.338 191.485 207.879 191.752C207.431 192.008 207.068 192.387 206.791 192.888C206.524 193.379 206.391 193.949 206.391 194.6C206.391 195.261 206.524 195.843 206.791 196.344C207.068 196.835 207.431 197.213 207.879 197.48C208.338 197.736 208.834 197.864 209.367 197.864C209.911 197.864 210.407 197.736 210.855 197.48C211.314 197.213 211.676 196.835 211.943 196.344C212.21 195.843 212.343 195.256 212.343 194.584ZM223.748 194.28C223.748 194.557 223.732 194.851 223.7 195.16H216.692C216.745 196.024 217.038 196.701 217.572 197.192C218.116 197.672 218.772 197.912 219.54 197.912C220.169 197.912 220.692 197.768 221.108 197.48C221.534 197.181 221.833 196.787 222.004 196.296H223.572C223.337 197.139 222.868 197.827 222.164 198.36C221.46 198.883 220.585 199.144 219.54 199.144C218.708 199.144 217.961 198.957 217.3 198.584C216.649 198.211 216.137 197.683 215.764 197C215.39 196.307 215.204 195.507 215.204 194.6C215.204 193.693 215.385 192.899 215.748 192.216C216.11 191.533 216.617 191.011 217.268 190.648C217.929 190.275 218.686 190.088 219.54 190.088C220.372 190.088 221.108 190.269 221.748 190.632C222.388 190.995 222.878 191.496 223.22 192.136C223.572 192.765 223.748 193.48 223.748 194.28ZM222.244 193.976C222.244 193.421 222.121 192.947 221.876 192.552C221.63 192.147 221.294 191.843 220.868 191.64C220.452 191.427 219.988 191.32 219.476 191.32C218.74 191.32 218.11 191.555 217.588 192.024C217.076 192.493 216.782 193.144 216.708 193.976H222.244ZM233.67 194.28C233.67 194.557 233.654 194.851 233.622 195.16H226.614C226.667 196.024 226.96 196.701 227.494 197.192C228.038 197.672 228.694 197.912 229.462 197.912C230.091 197.912 230.614 197.768 231.03 197.48C231.456 197.181 231.755 196.787 231.926 196.296H233.494C233.259 197.139 232.79 197.827 232.086 198.36C231.382 198.883 230.507 199.144 229.462 199.144C228.63 199.144 227.883 198.957 227.222 198.584C226.571 198.211 226.059 197.683 225.686 197C225.312 196.307 225.126 195.507 225.126 194.6C225.126 193.693 225.307 192.899 225.67 192.216C226.032 191.533 226.539 191.011 227.19 190.648C227.851 190.275 228.608 190.088 229.462 190.088C230.294 190.088 231.03 190.269 231.67 190.632C232.31 190.995 232.8 191.496 233.142 192.136C233.494 192.765 233.67 193.48 233.67 194.28ZM232.166 193.976C232.166 193.421 232.043 192.947 231.798 192.552C231.552 192.147 231.216 191.843 230.79 191.64C230.374 191.427 229.91 191.32 229.398 191.32C228.662 191.32 228.032 191.555 227.51 192.024C226.998 192.493 226.704 193.144 226.63 193.976H232.166ZM239.863 190.072C240.93 190.072 241.794 190.397 242.455 191.048C243.117 191.688 243.447 192.616 243.447 193.832V199H242.007V194.04C242.007 193.165 241.789 192.499 241.351 192.04C240.914 191.571 240.317 191.336 239.559 191.336C238.791 191.336 238.178 191.576 237.719 192.056C237.271 192.536 237.047 193.235 237.047 194.152V199H235.591V190.232H237.047V191.48C237.335 191.032 237.725 190.685 238.215 190.44C238.717 190.195 239.266 190.072 239.863 190.072ZM251.867 191.432V196.6C251.867 197.027 251.958 197.331 252.139 197.512C252.321 197.683 252.635 197.768 253.083 197.768H254.155V199H252.843C252.033 199 251.425 198.813 251.019 198.44C250.614 198.067 250.411 197.453 250.411 196.6V191.432H249.275V190.232H250.411V188.024H251.867V190.232H254.155V191.432H251.867ZM260.272 190.072C260.933 190.072 261.53 190.216 262.064 190.504C262.597 190.781 263.013 191.203 263.312 191.768C263.621 192.333 263.776 193.021 263.776 193.832V199H262.336V194.04C262.336 193.165 262.117 192.499 261.68 192.04C261.242 191.571 260.645 191.336 259.888 191.336C259.12 191.336 258.506 191.576 258.048 192.056C257.6 192.536 257.376 193.235 257.376 194.152V199H255.92V187.16H257.376V191.48C257.664 191.032 258.058 190.685 258.56 190.44C259.072 190.195 259.642 190.072 260.272 190.072ZM274.154 194.28C274.154 194.557 274.138 194.851 274.106 195.16H267.098C267.151 196.024 267.445 196.701 267.978 197.192C268.522 197.672 269.178 197.912 269.946 197.912C270.575 197.912 271.098 197.768 271.514 197.48C271.941 197.181 272.239 196.787 272.41 196.296H273.978C273.743 197.139 273.274 197.827 272.57 198.36C271.866 198.883 270.991 199.144 269.946 199.144C269.114 199.144 268.367 198.957 267.706 198.584C267.055 198.211 266.543 197.683 266.17 197C265.797 196.307 265.61 195.507 265.61 194.6C265.61 193.693 265.791 192.899 266.154 192.216C266.517 191.533 267.023 191.011 267.674 190.648C268.335 190.275 269.093 190.088 269.946 190.088C270.778 190.088 271.514 190.269 272.154 190.632C272.794 190.995 273.285 191.496 273.626 192.136C273.978 192.765 274.154 193.48 274.154 194.28ZM272.65 193.976C272.65 193.421 272.527 192.947 272.282 192.552C272.037 192.147 271.701 191.843 271.274 191.64C270.858 191.427 270.394 191.32 269.882 191.32C269.146 191.32 268.517 191.555 267.994 192.024C267.482 192.493 267.189 193.144 267.114 193.976H272.65ZM60.234 214.808C59.9567 214.808 59.722 214.712 59.53 214.52C59.338 214.328 59.242 214.093 59.242 213.816C59.242 213.539 59.338 213.304 59.53 213.112C59.722 212.92 59.9567 212.824 60.234 212.824C60.5007 212.824 60.7247 212.92 60.906 213.112C61.098 213.304 61.194 213.539 61.194 213.816C61.194 214.093 61.098 214.328 60.906 214.52C60.7247 214.712 60.5007 214.808 60.234 214.808ZM60.938 216.232V225H59.482V216.232H60.938ZM67.6915 216.072C68.7582 216.072 69.6222 216.397 70.2835 217.048C70.9448 217.688 71.2755 218.616 71.2755 219.832V225H69.8355V220.04C69.8355 219.165 69.6168 218.499 69.1795 218.04C68.7422 217.571 68.1448 217.336 67.3875 217.336C66.6195 217.336 66.0062 217.576 65.5475 218.056C65.0995 218.536 64.8755 219.235 64.8755 220.152V225H63.4195V216.232H64.8755V217.48C65.1635 217.032 65.5528 216.685 66.0435 216.44C66.5448 216.195 67.0942 216.072 67.6915 216.072ZM73.1099 220.584C73.1099 219.688 73.2912 218.904 73.6539 218.232C74.0165 217.549 74.5125 217.021 75.1419 216.648C75.7819 216.275 76.4965 216.088 77.2859 216.088C77.9685 216.088 78.6032 216.248 79.1899 216.568C79.7765 216.877 80.2245 217.288 80.5339 217.8V213.16H82.0059V225H80.5339V223.352C80.2459 223.875 79.8192 224.307 79.2539 224.648C78.6885 224.979 78.0272 225.144 77.2699 225.144C76.4912 225.144 75.7819 224.952 75.1419 224.568C74.5125 224.184 74.0165 223.645 73.6539 222.952C73.2912 222.259 73.1099 221.469 73.1099 220.584ZM80.5339 220.6C80.5339 219.939 80.4005 219.363 80.1339 218.872C79.8672 218.381 79.5045 218.008 79.0459 217.752C78.5979 217.485 78.1019 217.352 77.5579 217.352C77.0139 217.352 76.5179 217.48 76.0699 217.736C75.6219 217.992 75.2645 218.365 74.9979 218.856C74.7312 219.347 74.5979 219.923 74.5979 220.584C74.5979 221.256 74.7312 221.843 74.9979 222.344C75.2645 222.835 75.6219 223.213 76.0699 223.48C76.5179 223.736 77.0139 223.864 77.5579 223.864C78.1019 223.864 78.5979 223.736 79.0459 223.48C79.5045 223.213 79.8672 222.835 80.1339 222.344C80.4005 221.843 80.5339 221.261 80.5339 220.6ZM92.2424 216.232V225H90.7864V223.704C90.509 224.152 90.1197 224.504 89.6184 224.76C89.1277 225.005 88.5837 225.128 87.9864 225.128C87.3037 225.128 86.6904 224.989 86.1464 224.712C85.6024 224.424 85.1704 223.997 84.8504 223.432C84.541 222.867 84.3864 222.179 84.3864 221.368V216.232H85.8264V221.176C85.8264 222.04 86.045 222.707 86.4824 223.176C86.9197 223.635 87.517 223.864 88.2744 223.864C89.053 223.864 89.6664 223.624 90.1144 223.144C90.5624 222.664 90.7864 221.965 90.7864 221.048V216.232H92.2424ZM97.8048 225.144C97.1328 225.144 96.5301 225.032 95.9968 224.808C95.4634 224.573 95.0421 224.253 94.7328 223.848C94.4234 223.432 94.2528 222.957 94.2208 222.424H95.7248C95.7674 222.861 95.9701 223.219 96.3328 223.496C96.7061 223.773 97.1914 223.912 97.7888 223.912C98.3434 223.912 98.7808 223.789 99.1008 223.544C99.4208 223.299 99.5808 222.989 99.5808 222.616C99.5808 222.232 99.4101 221.949 99.0688 221.768C98.7274 221.576 98.1994 221.389 97.4848 221.208C96.8341 221.037 96.3008 220.867 95.8848 220.696C95.4794 220.515 95.1274 220.253 94.8288 219.912C94.5408 219.56 94.3968 219.101 94.3968 218.536C94.3968 218.088 94.5301 217.677 94.7968 217.304C95.0634 216.931 95.4421 216.637 95.9328 216.424C96.4234 216.2 96.9834 216.088 97.6128 216.088C98.5834 216.088 99.3674 216.333 99.9648 216.824C100.562 217.315 100.882 217.987 100.925 218.84H99.4688C99.4368 218.381 99.2501 218.013 98.9088 217.736C98.5781 217.459 98.1301 217.32 97.5648 217.32C97.0421 217.32 96.6261 217.432 96.3168 217.656C96.0074 217.88 95.8528 218.173 95.8528 218.536C95.8528 218.824 95.9434 219.064 96.1248 219.256C96.3168 219.437 96.5514 219.587 96.8288 219.704C97.1168 219.811 97.5114 219.933 98.0128 220.072C98.6421 220.243 99.1541 220.413 99.5488 220.584C99.9434 220.744 100.279 220.989 100.557 221.32C100.845 221.651 100.994 222.083 101.005 222.616C101.005 223.096 100.871 223.528 100.605 223.912C100.338 224.296 99.9594 224.6 99.4688 224.824C98.9888 225.037 98.4341 225.144 97.8048 225.144ZM104.836 217.432V222.6C104.836 223.027 104.927 223.331 105.108 223.512C105.289 223.683 105.604 223.768 106.052 223.768H107.124V225H105.812C105.001 225 104.393 224.813 103.988 224.44C103.583 224.067 103.38 223.453 103.38 222.6V217.432H102.244V216.232H103.38V214.024H104.836V216.232H107.124V217.432H104.836ZM110.344 217.656C110.6 217.155 110.963 216.765 111.432 216.488C111.912 216.211 112.494 216.072 113.176 216.072V217.576H112.792C111.16 217.576 110.344 218.461 110.344 220.232V225H108.888V216.232H110.344V217.656ZM122.409 216.232L117.129 229.128H115.625L117.353 224.904L113.817 216.232H115.433L118.185 223.336L120.905 216.232H122.409ZM124.609 212.264L124.417 215.448H123.409L123.201 212.264H124.609ZM129.524 225.144C128.852 225.144 128.249 225.032 127.716 224.808C127.182 224.573 126.761 224.253 126.452 223.848C126.142 223.432 125.972 222.957 125.94 222.424H127.444C127.486 222.861 127.689 223.219 128.052 223.496C128.425 223.773 128.91 223.912 129.508 223.912C130.062 223.912 130.5 223.789 130.82 223.544C131.14 223.299 131.3 222.989 131.3 222.616C131.3 222.232 131.129 221.949 130.788 221.768C130.446 221.576 129.918 221.389 129.204 221.208C128.553 221.037 128.02 220.867 127.604 220.696C127.198 220.515 126.846 220.253 126.548 219.912C126.26 219.56 126.116 219.101 126.116 218.536C126.116 218.088 126.249 217.677 126.516 217.304C126.782 216.931 127.161 216.637 127.652 216.424C128.142 216.2 128.702 216.088 129.332 216.088C130.302 216.088 131.086 216.333 131.684 216.824C132.281 217.315 132.601 217.987 132.644 218.84H131.188C131.156 218.381 130.969 218.013 130.628 217.736C130.297 217.459 129.849 217.32 129.284 217.32C128.761 217.32 128.345 217.432 128.036 217.656C127.726 217.88 127.572 218.173 127.572 218.536C127.572 218.824 127.662 219.064 127.844 219.256C128.036 219.437 128.27 219.587 128.548 219.704C128.836 219.811 129.23 219.933 129.732 220.072C130.361 220.243 130.873 220.413 131.268 220.584C131.662 220.744 131.998 220.989 132.276 221.32C132.564 221.651 132.713 222.083 132.724 222.616C132.724 223.096 132.59 223.528 132.324 223.912C132.057 224.296 131.678 224.6 131.188 224.824C130.708 225.037 130.153 225.144 129.524 225.144ZM142.149 225.144C141.477 225.144 140.874 225.032 140.341 224.808C139.807 224.573 139.386 224.253 139.077 223.848C138.767 223.432 138.597 222.957 138.565 222.424H140.069C140.111 222.861 140.314 223.219 140.677 223.496C141.05 223.773 141.535 223.912 142.133 223.912C142.687 223.912 143.125 223.789 143.445 223.544C143.765 223.299 143.925 222.989 143.925 222.616C143.925 222.232 143.754 221.949 143.413 221.768C143.071 221.576 142.543 221.389 141.829 221.208C141.178 221.037 140.645 220.867 140.229 220.696C139.823 220.515 139.471 220.253 139.173 219.912C138.885 219.56 138.741 219.101 138.741 218.536C138.741 218.088 138.874 217.677 139.141 217.304C139.407 216.931 139.786 216.637 140.277 216.424C140.767 216.2 141.327 216.088 141.957 216.088C142.927 216.088 143.711 216.333 144.309 216.824C144.906 217.315 145.226 217.987 145.269 218.84H143.813C143.781 218.381 143.594 218.013 143.253 217.736C142.922 217.459 142.474 217.32 141.909 217.32C141.386 217.32 140.97 217.432 140.661 217.656C140.351 217.88 140.197 218.173 140.197 218.536C140.197 218.824 140.287 219.064 140.469 219.256C140.661 219.437 140.895 219.587 141.173 219.704C141.461 219.811 141.855 219.933 142.357 220.072C142.986 220.243 143.498 220.413 143.893 220.584C144.287 220.744 144.623 220.989 144.901 221.32C145.189 221.651 145.338 222.083 145.349 222.616C145.349 223.096 145.215 223.528 144.949 223.912C144.682 224.296 144.303 224.6 143.813 224.824C143.333 225.037 142.778 225.144 142.149 225.144ZM149.18 217.432V222.6C149.18 223.027 149.271 223.331 149.452 223.512C149.633 223.683 149.948 223.768 150.396 223.768H151.468V225H150.156C149.345 225 148.737 224.813 148.332 224.44C147.927 224.067 147.724 223.453 147.724 222.6V217.432H146.588V216.232H147.724V214.024H149.18V216.232H151.468V217.432H149.18ZM152.688 220.584C152.688 219.688 152.869 218.904 153.232 218.232C153.595 217.549 154.091 217.021 154.72 216.648C155.36 216.275 156.069 216.088 156.848 216.088C157.616 216.088 158.283 216.253 158.848 216.584C159.413 216.915 159.835 217.331 160.112 217.832V216.232H161.584V225H160.112V223.368C159.824 223.88 159.392 224.307 158.816 224.648C158.251 224.979 157.589 225.144 156.832 225.144C156.053 225.144 155.349 224.952 154.72 224.568C154.091 224.184 153.595 223.645 153.232 222.952C152.869 222.259 152.688 221.469 152.688 220.584ZM160.112 220.6C160.112 219.939 159.979 219.363 159.712 218.872C159.445 218.381 159.083 218.008 158.624 217.752C158.176 217.485 157.68 217.352 157.136 217.352C156.592 217.352 156.096 217.48 155.648 217.736C155.2 217.992 154.843 218.365 154.576 218.856C154.309 219.347 154.176 219.923 154.176 220.584C154.176 221.256 154.309 221.843 154.576 222.344C154.843 222.835 155.2 223.213 155.648 223.48C156.096 223.736 156.592 223.864 157.136 223.864C157.68 223.864 158.176 223.736 158.624 223.48C159.083 223.213 159.445 222.835 159.712 222.344C159.979 221.843 160.112 221.261 160.112 220.6ZM168.317 216.072C169.383 216.072 170.247 216.397 170.909 217.048C171.57 217.688 171.901 218.616 171.901 219.832V225H170.461V220.04C170.461 219.165 170.242 218.499 169.805 218.04C169.367 217.571 168.77 217.336 168.013 217.336C167.245 217.336 166.631 217.576 166.173 218.056C165.725 218.536 165.501 219.235 165.501 220.152V225H164.045V216.232H165.501V217.48C165.789 217.032 166.178 216.685 166.669 216.44C167.17 216.195 167.719 216.072 168.317 216.072ZM173.735 220.584C173.735 219.688 173.916 218.904 174.279 218.232C174.642 217.549 175.138 217.021 175.767 216.648C176.407 216.275 177.122 216.088 177.911 216.088C178.594 216.088 179.228 216.248 179.815 216.568C180.402 216.877 180.85 217.288 181.159 217.8V213.16H182.631V225H181.159V223.352C180.871 223.875 180.444 224.307 179.879 224.648C179.314 224.979 178.652 225.144 177.895 225.144C177.116 225.144 176.407 224.952 175.767 224.568C175.138 224.184 174.642 223.645 174.279 222.952C173.916 222.259 173.735 221.469 173.735 220.584ZM181.159 220.6C181.159 219.939 181.026 219.363 180.759 218.872C180.492 218.381 180.13 218.008 179.671 217.752C179.223 217.485 178.727 217.352 178.183 217.352C177.639 217.352 177.143 217.48 176.695 217.736C176.247 217.992 175.89 218.365 175.623 218.856C175.356 219.347 175.223 219.923 175.223 220.584C175.223 221.256 175.356 221.843 175.623 222.344C175.89 222.835 176.247 223.213 176.695 223.48C177.143 223.736 177.639 223.864 178.183 223.864C178.727 223.864 179.223 223.736 179.671 223.48C180.13 223.213 180.492 222.835 180.759 222.344C181.026 221.843 181.159 221.261 181.159 220.6ZM184.547 220.584C184.547 219.688 184.729 218.904 185.091 218.232C185.454 217.549 185.95 217.021 186.579 216.648C187.219 216.275 187.929 216.088 188.707 216.088C189.475 216.088 190.142 216.253 190.707 216.584C191.273 216.915 191.694 217.331 191.971 217.832V216.232H193.443V225H191.971V223.368C191.683 223.88 191.251 224.307 190.675 224.648C190.11 224.979 189.449 225.144 188.691 225.144C187.913 225.144 187.209 224.952 186.579 224.568C185.95 224.184 185.454 223.645 185.091 222.952C184.729 222.259 184.547 221.469 184.547 220.584ZM191.971 220.6C191.971 219.939 191.838 219.363 191.571 218.872C191.305 218.381 190.942 218.008 190.483 217.752C190.035 217.485 189.539 217.352 188.995 217.352C188.451 217.352 187.955 217.48 187.507 217.736C187.059 217.992 186.702 218.365 186.435 218.856C186.169 219.347 186.035 219.923 186.035 220.584C186.035 221.256 186.169 221.843 186.435 222.344C186.702 222.835 187.059 223.213 187.507 223.48C187.955 223.736 188.451 223.864 188.995 223.864C189.539 223.864 190.035 223.736 190.483 223.48C190.942 223.213 191.305 222.835 191.571 222.344C191.838 221.843 191.971 221.261 191.971 220.6ZM197.36 217.656C197.616 217.155 197.979 216.765 198.448 216.488C198.928 216.211 199.509 216.072 200.192 216.072V217.576H199.808C198.176 217.576 197.36 218.461 197.36 220.232V225H195.904V216.232H197.36V217.656ZM201.329 220.584C201.329 219.688 201.51 218.904 201.873 218.232C202.235 217.549 202.731 217.021 203.361 216.648C204.001 216.275 204.715 216.088 205.505 216.088C206.187 216.088 206.822 216.248 207.409 216.568C207.995 216.877 208.443 217.288 208.753 217.8V213.16H210.225V225H208.753V223.352C208.465 223.875 208.038 224.307 207.473 224.648C206.907 224.979 206.246 225.144 205.489 225.144C204.71 225.144 204.001 224.952 203.361 224.568C202.731 224.184 202.235 223.645 201.873 222.952C201.51 222.259 201.329 221.469 201.329 220.584ZM208.753 220.6C208.753 219.939 208.619 219.363 208.353 218.872C208.086 218.381 207.723 218.008 207.265 217.752C206.817 217.485 206.321 217.352 205.777 217.352C205.233 217.352 204.737 217.48 204.289 217.736C203.841 217.992 203.483 218.365 203.217 218.856C202.95 219.347 202.817 219.923 202.817 220.584C202.817 221.256 202.95 221.843 203.217 222.344C203.483 222.835 203.841 223.213 204.289 223.48C204.737 223.736 205.233 223.864 205.777 223.864C206.321 223.864 206.817 223.736 207.265 223.48C207.723 223.213 208.086 222.835 208.353 222.344C208.619 221.843 208.753 221.261 208.753 220.6ZM216.407 220.584C216.407 219.688 216.588 218.904 216.951 218.232C217.313 217.549 217.809 217.021 218.439 216.648C219.079 216.275 219.793 216.088 220.583 216.088C221.265 216.088 221.9 216.248 222.487 216.568C223.073 216.877 223.521 217.288 223.831 217.8V213.16H225.303V225H223.831V223.352C223.543 223.875 223.116 224.307 222.551 224.648C221.985 224.979 221.324 225.144 220.567 225.144C219.788 225.144 219.079 224.952 218.439 224.568C217.809 224.184 217.313 223.645 216.951 222.952C216.588 222.259 216.407 221.469 216.407 220.584ZM223.831 220.6C223.831 219.939 223.697 219.363 223.431 218.872C223.164 218.381 222.801 218.008 222.343 217.752C221.895 217.485 221.399 217.352 220.855 217.352C220.311 217.352 219.815 217.48 219.367 217.736C218.919 217.992 218.561 218.365 218.295 218.856C218.028 219.347 217.895 219.923 217.895 220.584C217.895 221.256 218.028 221.843 218.295 222.344C218.561 222.835 218.919 223.213 219.367 223.48C219.815 223.736 220.311 223.864 220.855 223.864C221.399 223.864 221.895 223.736 222.343 223.48C222.801 223.213 223.164 222.835 223.431 222.344C223.697 221.843 223.831 221.261 223.831 220.6ZM235.539 216.232V225H234.083V223.704C233.806 224.152 233.417 224.504 232.915 224.76C232.425 225.005 231.881 225.128 231.283 225.128C230.601 225.128 229.987 224.989 229.443 224.712C228.899 224.424 228.467 223.997 228.147 223.432C227.838 222.867 227.683 222.179 227.683 221.368V216.232H229.123V221.176C229.123 222.04 229.342 222.707 229.779 223.176C230.217 223.635 230.814 223.864 231.571 223.864C232.35 223.864 232.963 223.624 233.411 223.144C233.859 222.664 234.083 221.965 234.083 221.048V216.232H235.539ZM248.542 216.072C249.224 216.072 249.832 216.216 250.366 216.504C250.899 216.781 251.32 217.203 251.63 217.768C251.939 218.333 252.094 219.021 252.094 219.832V225H250.654V220.04C250.654 219.165 250.435 218.499 249.998 218.04C249.571 217.571 248.99 217.336 248.254 217.336C247.496 217.336 246.894 217.581 246.446 218.072C245.998 218.552 245.774 219.251 245.774 220.168V225H244.334V220.04C244.334 219.165 244.115 218.499 243.678 218.04C243.251 217.571 242.67 217.336 241.934 217.336C241.176 217.336 240.574 217.581 240.126 218.072C239.678 218.552 239.454 219.251 239.454 220.168V225H237.998V216.232H239.454V217.496C239.742 217.037 240.126 216.685 240.606 216.44C241.096 216.195 241.635 216.072 242.222 216.072C242.958 216.072 243.608 216.237 244.174 216.568C244.739 216.899 245.16 217.384 245.438 218.024C245.683 217.405 246.088 216.925 246.654 216.584C247.219 216.243 247.848 216.072 248.542 216.072ZM265.026 216.072C265.709 216.072 266.317 216.216 266.85 216.504C267.383 216.781 267.805 217.203 268.114 217.768C268.423 218.333 268.578 219.021 268.578 219.832V225H267.138V220.04C267.138 219.165 266.919 218.499 266.482 218.04C266.055 217.571 265.474 217.336 264.738 217.336C263.981 217.336 263.378 217.581 262.93 218.072C262.482 218.552 262.258 219.251 262.258 220.168V225H260.818V220.04C260.818 219.165 260.599 218.499 260.162 218.04C259.735 217.571 259.154 217.336 258.418 217.336C257.661 217.336 257.058 217.581 256.61 218.072C256.162 218.552 255.938 219.251 255.938 220.168V225H254.482V216.232H255.938V217.496C256.226 217.037 256.61 216.685 257.09 216.44C257.581 216.195 258.119 216.072 258.706 216.072C259.442 216.072 260.093 216.237 260.658 216.568C261.223 216.899 261.645 217.384 261.922 218.024C262.167 217.405 262.573 216.925 263.138 216.584C263.703 216.243 264.333 216.072 265.026 216.072ZM278.518 216.232L273.238 229.128H271.734L273.462 224.904L269.926 216.232H271.542L274.294 223.336L277.014 216.232H278.518ZM137.367 243.432V248.6C137.367 249.027 137.458 249.331 137.639 249.512C137.821 249.683 138.135 249.768 138.583 249.768H139.655V251H138.343C137.533 251 136.925 250.813 136.519 250.44C136.114 250.067 135.911 249.453 135.911 248.6V243.432H134.775V242.232H135.911V240.024H137.367V242.232H139.655V243.432H137.367ZM149.42 246.28C149.42 246.557 149.404 246.851 149.372 247.16H142.364C142.417 248.024 142.71 248.701 143.244 249.192C143.788 249.672 144.444 249.912 145.212 249.912C145.841 249.912 146.364 249.768 146.78 249.48C147.206 249.181 147.505 248.787 147.676 248.296H149.244C149.009 249.139 148.54 249.827 147.836 250.36C147.132 250.883 146.257 251.144 145.212 251.144C144.38 251.144 143.633 250.957 142.972 250.584C142.321 250.211 141.809 249.683 141.436 249C141.062 248.307 140.876 247.507 140.876 246.6C140.876 245.693 141.057 244.899 141.42 244.216C141.782 243.533 142.289 243.011 142.94 242.648C143.601 242.275 144.358 242.088 145.212 242.088C146.044 242.088 146.78 242.269 147.42 242.632C148.06 242.995 148.55 243.496 148.892 244.136C149.244 244.765 149.42 245.48 149.42 246.28ZM147.916 245.976C147.916 245.421 147.793 244.947 147.548 244.552C147.302 244.147 146.966 243.843 146.54 243.64C146.124 243.427 145.66 243.32 145.148 243.32C144.412 243.32 143.782 243.555 143.26 244.024C142.748 244.493 142.454 245.144 142.38 245.976H147.916ZM155.917 251L153.837 247.736L151.837 251H150.317L153.149 246.648L150.317 242.232H151.965L154.045 245.48L156.029 242.232H157.549L154.733 246.568L157.565 251H155.917ZM160.774 243.432V248.6C160.774 249.027 160.864 249.331 161.046 249.512C161.227 249.683 161.542 249.768 161.99 249.768H163.062V251H161.75C160.939 251 160.331 250.813 159.926 250.44C159.52 250.067 159.318 249.453 159.318 248.6V243.432H158.182V242.232H159.318V240.024H160.774V242.232H163.062V243.432H160.774ZM177.091 246.28C177.091 246.557 177.075 246.851 177.043 247.16H170.035C170.089 248.024 170.382 248.701 170.915 249.192C171.459 249.672 172.115 249.912 172.883 249.912C173.513 249.912 174.035 249.768 174.451 249.48C174.878 249.181 175.177 248.787 175.347 248.296H176.915C176.681 249.139 176.211 249.827 175.507 250.36C174.803 250.883 173.929 251.144 172.883 251.144C172.051 251.144 171.305 250.957 170.643 250.584C169.993 250.211 169.481 249.683 169.107 249C168.734 248.307 168.547 247.507 168.547 246.6C168.547 245.693 168.729 244.899 169.091 244.216C169.454 243.533 169.961 243.011 170.611 242.648C171.273 242.275 172.03 242.088 172.883 242.088C173.715 242.088 174.451 242.269 175.091 242.632C175.731 242.995 176.222 243.496 176.563 244.136C176.915 244.765 177.091 245.48 177.091 246.28ZM175.587 245.976C175.587 245.421 175.465 244.947 175.219 244.552C174.974 244.147 174.638 243.843 174.211 243.64C173.795 243.427 173.331 243.32 172.819 243.32C172.083 243.32 171.454 243.555 170.931 244.024C170.419 244.493 170.126 245.144 170.051 245.976H175.587ZM182.277 249.656L184.997 242.232H186.549L183.109 251H181.413L177.973 242.232H179.541L182.277 249.656ZM195.982 246.28C195.982 246.557 195.966 246.851 195.934 247.16H188.926C188.979 248.024 189.273 248.701 189.806 249.192C190.35 249.672 191.006 249.912 191.774 249.912C192.403 249.912 192.926 249.768 193.342 249.48C193.769 249.181 194.067 248.787 194.238 248.296H195.806C195.571 249.139 195.102 249.827 194.398 250.36C193.694 250.883 192.819 251.144 191.774 251.144C190.942 251.144 190.195 250.957 189.534 250.584C188.883 250.211 188.371 249.683 187.998 249C187.625 248.307 187.438 247.507 187.438 246.6C187.438 245.693 187.619 244.899 187.982 244.216C188.345 243.533 188.851 243.011 189.502 242.648C190.163 242.275 190.921 242.088 191.774 242.088C192.606 242.088 193.342 242.269 193.982 242.632C194.622 242.995 195.113 243.496 195.454 244.136C195.806 244.765 195.982 245.48 195.982 246.28ZM194.478 245.976C194.478 245.421 194.355 244.947 194.11 244.552C193.865 244.147 193.529 243.843 193.102 243.64C192.686 243.427 192.222 243.32 191.71 243.32C190.974 243.32 190.345 243.555 189.822 244.024C189.31 244.493 189.017 245.144 188.942 245.976H194.478ZM199.36 243.656C199.616 243.155 199.979 242.765 200.448 242.488C200.928 242.211 201.509 242.072 202.192 242.072V243.576H201.808C200.176 243.576 199.36 244.461 199.36 246.232V251H197.904V242.232H199.36V243.656Z" fill="black"/>
<path d="M168 100C168.733 100 169.361 99.7387 169.884 99.216C170.406 98.6942 170.667 98.0667 170.667 97.3334C170.667 96.6 170.406 95.972 169.884 95.4494C169.361 94.9276 168.733 94.6667 168 94.6667C167.267 94.6667 166.639 94.9276 166.117 95.4494C165.595 95.972 165.333 96.6 165.333 97.3334C165.333 98.0667 165.595 98.6942 166.117 99.216C166.639 99.7387 167.267 100 168 100ZM175.467 106.667L170.7 101.9C170.322 102.144 169.906 102.333 169.451 102.467C168.995 102.6 168.511 102.667 168 102.667C166.533 102.667 165.278 102.144 164.233 101.1C163.189 100.056 162.667 98.8 162.667 97.3334C162.667 95.8667 163.189 94.6111 164.233 93.5667C165.278 92.5222 166.533 92 168 92C169.467 92 170.722 92.5222 171.767 93.5667C172.811 94.6111 173.333 95.8667 173.333 97.3334C173.333 97.8445 173.267 98.3222 173.133 98.7667C173 99.2111 172.811 99.6222 172.567 100L176 103.433V91.6334L170.733 85.3334H160V106.667H175.467ZM160 109.333C159.267 109.333 158.639 109.072 158.117 108.551C157.595 108.028 157.333 107.4 157.333 106.667V85.3334C157.333 84.6 157.595 83.972 158.117 83.4494C158.639 82.9276 159.267 82.6667 160 82.6667H170.767C171.167 82.6667 171.544 82.7502 171.9 82.9174C172.256 83.0836 172.556 83.3222 172.8 83.6334L178.033 89.9334C178.211 90.1778 178.361 90.4445 178.484 90.7334C178.606 91.0222 178.667 91.3222 178.667 91.6334V106.667C178.667 107.4 178.406 108.028 177.884 108.551C177.361 109.072 176.733 109.333 176 109.333H160Z" fill="white"/>
<defs>
<filter id="filter0_d_66_256" x="0" y="0" width="337" height="337" filterUnits="userSpaceOnUse" color-interpolation-filters="sRGB">
<feFlood flood-opacity="0" result="BackgroundImageFix"/>
<feColorMatrix in="SourceAlpha" type="matrix" values="0 0 0 0 0 0 0 0 0 0 0 0 0 0 0 0 0 0 127 0" result="hardAlpha"/>
<feOffset/>
<feGaussianBlur stdDeviation="12"/>
<feComposite in2="hardAlpha" operator="out"/>
<feColorMatrix type="matrix" values="0 0 0 0 0 0 0 0 0 0.328019 0 0 0 0 0.404167 0 0 0 0.16 0"/>
<feBlend mode="normal" in2="BackgroundImageFix" result="effect1_dropShadow_66_256"/>
<feBlend mode="normal" in="SourceGraphic" in2="effect1_dropShadow_66_256" result="shape"/>
</filter>
</defs>
</svg>
