<svg width="339" height="339" viewBox="0 0 339 339" fill="none" xmlns="http://www.w3.org/2000/svg">
<circle cx="169" cy="170" r="165" transform="rotate(90 169 170)" fill="white"/>
<g filter="url(#filter0_d_66_250)">
<circle cx="169.5" cy="169.5" r="144.5" transform="rotate(90 169.5 169.5)" fill="#FFF9E8"/>
</g>
<circle cx="169" cy="97" r="35" fill="#608BFF"/>
<path d="M108.647 161.14C107.674 161.14 106.794 160.973 106.007 160.64C105.234 160.307 104.621 159.827 104.167 159.2C103.714 158.573 103.481 157.833 103.467 156.98H106.467C106.507 157.553 106.707 158.007 107.067 158.34C107.441 158.673 107.947 158.84 108.587 158.84C109.241 158.84 109.754 158.687 110.127 158.38C110.501 158.06 110.687 157.647 110.687 157.14C110.687 156.727 110.561 156.387 110.307 156.12C110.054 155.853 109.734 155.647 109.347 155.5C108.974 155.34 108.454 155.167 107.787 154.98C106.881 154.713 106.141 154.453 105.567 154.2C105.007 153.933 104.521 153.54 104.107 153.02C103.707 152.487 103.507 151.78 103.507 150.9C103.507 150.073 103.714 149.353 104.127 148.74C104.541 148.127 105.121 147.66 105.867 147.34C106.614 147.007 107.467 146.84 108.427 146.84C109.867 146.84 111.034 147.193 111.927 147.9C112.834 148.593 113.334 149.567 113.427 150.82H110.347C110.321 150.34 110.114 149.947 109.727 149.64C109.354 149.32 108.854 149.16 108.227 149.16C107.681 149.16 107.241 149.3 106.907 149.58C106.587 149.86 106.427 150.267 106.427 150.8C106.427 151.173 106.547 151.487 106.787 151.74C107.041 151.98 107.347 152.18 107.707 152.34C108.081 152.487 108.601 152.66 109.267 152.86C110.174 153.127 110.914 153.393 111.487 153.66C112.061 153.927 112.554 154.327 112.967 154.86C113.381 155.393 113.587 156.093 113.587 156.96C113.587 157.707 113.394 158.4 113.007 159.04C112.621 159.68 112.054 160.193 111.307 160.58C110.561 160.953 109.674 161.14 108.647 161.14ZM126.315 155.22C126.315 155.62 126.288 155.98 126.235 156.3H118.135C118.201 157.1 118.481 157.727 118.975 158.18C119.468 158.633 120.075 158.86 120.795 158.86C121.835 158.86 122.575 158.413 123.015 157.52H126.035C125.715 158.587 125.101 159.467 124.195 160.16C123.288 160.84 122.175 161.18 120.855 161.18C119.788 161.18 118.828 160.947 117.975 160.48C117.135 160 116.475 159.327 115.995 158.46C115.528 157.593 115.295 156.593 115.295 155.46C115.295 154.313 115.528 153.307 115.995 152.44C116.461 151.573 117.115 150.907 117.955 150.44C118.795 149.973 119.761 149.74 120.855 149.74C121.908 149.74 122.848 149.967 123.675 150.42C124.515 150.873 125.161 151.52 125.615 152.36C126.081 153.187 126.315 154.14 126.315 155.22ZM123.415 154.42C123.401 153.7 123.141 153.127 122.635 152.7C122.128 152.26 121.508 152.04 120.775 152.04C120.081 152.04 119.495 152.253 119.015 152.68C118.548 153.093 118.261 153.673 118.155 154.42H123.415ZM131.619 152.22V157.58C131.619 157.953 131.705 158.227 131.879 158.4C132.065 158.56 132.372 158.64 132.799 158.64H134.099V161H132.339C129.979 161 128.799 159.853 128.799 157.56V152.22H127.479V149.92H128.799V147.18H131.619V149.92H134.099V152.22H131.619ZM151.978 147.04L147.258 156.14V161H144.458V156.14L139.718 147.04H142.878L145.878 153.42L148.858 147.04H151.978ZM158.513 161.18C157.446 161.18 156.486 160.947 155.633 160.48C154.78 160 154.106 159.327 153.613 158.46C153.133 157.593 152.893 156.593 152.893 155.46C152.893 154.327 153.14 153.327 153.633 152.46C154.14 151.593 154.826 150.927 155.693 150.46C156.56 149.98 157.526 149.74 158.593 149.74C159.66 149.74 160.626 149.98 161.493 150.46C162.36 150.927 163.04 151.593 163.533 152.46C164.04 153.327 164.293 154.327 164.293 155.46C164.293 156.593 164.033 157.593 163.513 158.46C163.006 159.327 162.313 160 161.433 160.48C160.566 160.947 159.593 161.18 158.513 161.18ZM158.513 158.74C159.02 158.74 159.493 158.62 159.933 158.38C160.386 158.127 160.746 157.753 161.013 157.26C161.28 156.767 161.413 156.167 161.413 155.46C161.413 154.407 161.133 153.6 160.573 153.04C160.026 152.467 159.353 152.18 158.553 152.18C157.753 152.18 157.08 152.467 156.533 153.04C156 153.6 155.733 154.407 155.733 155.46C155.733 156.513 155.993 157.327 156.513 157.9C157.046 158.46 157.713 158.74 158.513 158.74ZM176.807 149.92V161H173.987V159.6C173.627 160.08 173.153 160.46 172.567 160.74C171.993 161.007 171.367 161.14 170.687 161.14C169.82 161.14 169.053 160.96 168.387 160.6C167.72 160.227 167.193 159.687 166.807 158.98C166.433 158.26 166.247 157.407 166.247 156.42V149.92H169.047V156.02C169.047 156.9 169.267 157.58 169.707 158.06C170.147 158.527 170.747 158.76 171.507 158.76C172.28 158.76 172.887 158.527 173.327 158.06C173.767 157.58 173.987 156.9 173.987 156.02V149.92H176.807ZM182.369 151.64C182.729 151.053 183.196 150.593 183.769 150.26C184.356 149.927 185.023 149.76 185.769 149.76V152.7H185.029C184.149 152.7 183.483 152.907 183.029 153.32C182.589 153.733 182.369 154.453 182.369 155.48V161H179.569V149.92H182.369V151.64ZM202.601 151.36C202.601 152.107 202.421 152.807 202.061 153.46C201.714 154.113 201.161 154.64 200.401 155.04C199.654 155.44 198.708 155.64 197.561 155.64H195.221V161H192.421V147.04H197.561C198.641 147.04 199.561 147.227 200.321 147.6C201.081 147.973 201.648 148.487 202.021 149.14C202.408 149.793 202.601 150.533 202.601 151.36ZM197.441 153.38C198.214 153.38 198.788 153.207 199.161 152.86C199.534 152.5 199.721 152 199.721 151.36C199.721 150 198.961 149.32 197.441 149.32H195.221V153.38H197.441ZM207.389 146.2V161H204.589V146.2H207.389ZM209.435 155.42C209.435 154.3 209.655 153.307 210.095 152.44C210.549 151.573 211.155 150.907 211.915 150.44C212.689 149.973 213.549 149.74 214.495 149.74C215.322 149.74 216.042 149.907 216.655 150.24C217.282 150.573 217.782 150.993 218.155 151.5V149.92H220.975V161H218.155V159.38C217.795 159.9 217.295 160.333 216.655 160.68C216.029 161.013 215.302 161.18 214.475 161.18C213.542 161.18 212.689 160.94 211.915 160.46C211.155 159.98 210.549 159.307 210.095 158.44C209.655 157.56 209.435 156.553 209.435 155.42ZM218.155 155.46C218.155 154.78 218.022 154.2 217.755 153.72C217.489 153.227 217.129 152.853 216.675 152.6C216.222 152.333 215.735 152.2 215.215 152.2C214.695 152.2 214.215 152.327 213.775 152.58C213.335 152.833 212.975 153.207 212.695 153.7C212.429 154.18 212.295 154.753 212.295 155.42C212.295 156.087 212.429 156.673 212.695 157.18C212.975 157.673 213.335 158.053 213.775 158.32C214.229 158.587 214.709 158.72 215.215 158.72C215.735 158.72 216.222 158.593 216.675 158.34C217.129 158.073 217.489 157.7 217.755 157.22C218.022 156.727 218.155 156.14 218.155 155.46ZM229.85 149.76C231.17 149.76 232.237 150.18 233.05 151.02C233.863 151.847 234.27 153.007 234.27 154.5V161H231.47V154.88C231.47 154 231.25 153.327 230.81 152.86C230.37 152.38 229.77 152.14 229.01 152.14C228.237 152.14 227.623 152.38 227.17 152.86C226.73 153.327 226.51 154 226.51 154.88V161H223.71V149.92H226.51V151.3C226.883 150.82 227.357 150.447 227.93 150.18C228.517 149.9 229.157 149.76 229.85 149.76Z" fill="black"/>
<path d="M184 89C184 88.6 183.8 88.3 183.5 88.1L176.5 84.1C176.3 84 176.2 84 176 84C175.8 84 175.7 84 175.5 84.1L169 87.8L162.5 84.1C162.3 84 162.2 84 162 84C161.8 84 161.7 84 161.5 84.1L154.5 88.1C154.2 88.3 154 88.6 154 89V109C154 109.6 154.4 110 155 110C155.2 110 155.3 109.9 155.5 109.9L162 106.2L168.5 109.9C168.7 110 168.8 110 169 110C169.2 110 169.3 110 169.5 109.9L176 106.2L182.5 109.9C182.6 110 182.8 110 183 110C183.6 110 184 109.6 184 109V89ZM156 89.6L161 86.7V104.4L156 107.3V89.6ZM168 107.3L163 104.4V86.7L168 89.6V107.3ZM175 104.4L170 107.3V89.6L175 86.7V104.4ZM177 104.4V86.7L182 89.6V107.3L177 104.4Z" fill="white"/>
<defs>
<filter id="filter0_d_66_250" x="3.05176e-05" y="0" width="339" height="339" filterUnits="userSpaceOnUse" color-interpolation-filters="sRGB">
<feFlood flood-opacity="0" result="BackgroundImageFix"/>
<feColorMatrix in="SourceAlpha" type="matrix" values="0 0 0 0 0 0 0 0 0 0 0 0 0 0 0 0 0 0 127 0" result="hardAlpha"/>
<feOffset/>
<feGaussianBlur stdDeviation="12.5"/>
<feComposite in2="hardAlpha" operator="out"/>
<feColorMatrix type="matrix" values="0 0 0 0 0 0 0 0 0 0 0 0 0 0 0 0 0 0 0.05 0"/>
<feBlend mode="normal" in2="BackgroundImageFix" result="effect1_dropShadow_66_250"/>
<feBlend mode="normal" in="SourceGraphic" in2="effect1_dropShadow_66_250" result="shape"/>
</filter>
</defs>
</svg>
